<mxfile host="app.diagrams.net" agent="Mozilla/5.0 (Windows NT 10.0; Win64; x64) AppleWebKit/537.36 (KHTML, like Gecko) Chrome/132.0.0.0 Safari/537.36 OPR/117.0.0.0" version="26.2.1">
  <diagram name="PÃ¡gina-1" id="BEGrBsFgpgpYIN1WFoCE">
    <mxGraphModel dx="990" dy="574" grid="1" gridSize="10" guides="1" tooltips="1" connect="1" arrows="1" fold="1" page="1" pageScale="1" pageWidth="827" pageHeight="1169" math="0" shadow="0">
      <root>
        <mxCell id="0" />
        <mxCell id="1" parent="0" />
        <mxCell id="qmdzbkhT0GlxcxZyQKuT-1" value="" style="shape=mxgraph.cisco.routers.router;sketch=0;html=1;pointerEvents=1;dashed=0;fillColor=#036897;strokeColor=#ffffff;strokeWidth=2;verticalLabelPosition=bottom;verticalAlign=top;align=center;outlineConnect=0;" vertex="1" parent="1">
          <mxGeometry x="390" y="100" width="48" height="33" as="geometry" />
        </mxCell>
        <mxCell id="qmdzbkhT0GlxcxZyQKuT-3" value="" style="shape=mxgraph.cisco.switches.workgroup_switch;sketch=0;html=1;pointerEvents=1;dashed=0;fillColor=#036897;strokeColor=#ffffff;strokeWidth=2;verticalLabelPosition=bottom;verticalAlign=top;align=center;outlineConnect=0;" vertex="1" parent="1">
          <mxGeometry x="140" y="290" width="71" height="30" as="geometry" />
        </mxCell>
        <mxCell id="qmdzbkhT0GlxcxZyQKuT-4" value="" style="shape=mxgraph.cisco.switches.workgroup_switch;sketch=0;html=1;pointerEvents=1;dashed=0;fillColor=#036897;strokeColor=#ffffff;strokeWidth=2;verticalLabelPosition=bottom;verticalAlign=top;align=center;outlineConnect=0;" vertex="1" parent="1">
          <mxGeometry x="610" y="290" width="71" height="30" as="geometry" />
        </mxCell>
        <mxCell id="qmdzbkhT0GlxcxZyQKuT-5" value="" style="shape=mxgraph.cisco.switches.workgroup_switch;sketch=0;html=1;pointerEvents=1;dashed=0;fillColor=#036897;strokeColor=#ffffff;strokeWidth=2;verticalLabelPosition=bottom;verticalAlign=top;align=center;outlineConnect=0;" vertex="1" parent="1">
          <mxGeometry x="390" y="250" width="71" height="30" as="geometry" />
        </mxCell>
        <mxCell id="qmdzbkhT0GlxcxZyQKuT-6" value="" style="shape=mxgraph.cisco.computers_and_peripherals.pc;sketch=0;html=1;pointerEvents=1;dashed=0;fillColor=#036897;strokeColor=#ffffff;strokeWidth=2;verticalLabelPosition=bottom;verticalAlign=top;align=center;outlineConnect=0;" vertex="1" parent="1">
          <mxGeometry x="20" y="330" width="58" height="40" as="geometry" />
        </mxCell>
        <mxCell id="qmdzbkhT0GlxcxZyQKuT-7" value="" style="shape=mxgraph.cisco.computers_and_peripherals.pc;sketch=0;html=1;pointerEvents=1;dashed=0;fillColor=#036897;strokeColor=#ffffff;strokeWidth=2;verticalLabelPosition=bottom;verticalAlign=top;align=center;outlineConnect=0;" vertex="1" parent="1">
          <mxGeometry x="140" y="390" width="58" height="40" as="geometry" />
        </mxCell>
        <mxCell id="qmdzbkhT0GlxcxZyQKuT-8" value="" style="shape=mxgraph.cisco.computers_and_peripherals.pc;sketch=0;html=1;pointerEvents=1;dashed=0;fillColor=#036897;strokeColor=#ffffff;strokeWidth=2;verticalLabelPosition=bottom;verticalAlign=top;align=center;outlineConnect=0;" vertex="1" parent="1">
          <mxGeometry x="40" y="220" width="58" height="40" as="geometry" />
        </mxCell>
        <mxCell id="qmdzbkhT0GlxcxZyQKuT-9" value="" style="shape=mxgraph.cisco.computers_and_peripherals.pc;sketch=0;html=1;pointerEvents=1;dashed=0;fillColor=#036897;strokeColor=#ffffff;strokeWidth=2;verticalLabelPosition=bottom;verticalAlign=top;align=center;outlineConnect=0;" vertex="1" parent="1">
          <mxGeometry x="600" y="390" width="58" height="40" as="geometry" />
        </mxCell>
        <mxCell id="qmdzbkhT0GlxcxZyQKuT-10" value="" style="shape=mxgraph.cisco.computers_and_peripherals.pc;sketch=0;html=1;pointerEvents=1;dashed=0;fillColor=#036897;strokeColor=#ffffff;strokeWidth=2;verticalLabelPosition=bottom;verticalAlign=top;align=center;outlineConnect=0;" vertex="1" parent="1">
          <mxGeometry x="740" y="340" width="58" height="40" as="geometry" />
        </mxCell>
        <mxCell id="qmdzbkhT0GlxcxZyQKuT-11" value="" style="shape=mxgraph.cisco.computers_and_peripherals.pc;sketch=0;html=1;pointerEvents=1;dashed=0;fillColor=#036897;strokeColor=#ffffff;strokeWidth=2;verticalLabelPosition=bottom;verticalAlign=top;align=center;outlineConnect=0;" vertex="1" parent="1">
          <mxGeometry x="740" y="210" width="58" height="40" as="geometry" />
        </mxCell>
        <mxCell id="qmdzbkhT0GlxcxZyQKuT-12" value="" style="endArrow=none;html=1;rounded=0;" edge="1" parent="1" source="qmdzbkhT0GlxcxZyQKuT-7" target="qmdzbkhT0GlxcxZyQKuT-3">
          <mxGeometry width="50" height="50" relative="1" as="geometry">
            <mxPoint x="300" y="400" as="sourcePoint" />
            <mxPoint x="290" y="300" as="targetPoint" />
          </mxGeometry>
        </mxCell>
        <mxCell id="qmdzbkhT0GlxcxZyQKuT-13" value="" style="endArrow=none;html=1;rounded=0;" edge="1" parent="1" source="qmdzbkhT0GlxcxZyQKuT-6" target="qmdzbkhT0GlxcxZyQKuT-3">
          <mxGeometry width="50" height="50" relative="1" as="geometry">
            <mxPoint x="300" y="400" as="sourcePoint" />
            <mxPoint x="290" y="300" as="targetPoint" />
          </mxGeometry>
        </mxCell>
        <mxCell id="qmdzbkhT0GlxcxZyQKuT-14" value="" style="endArrow=none;html=1;rounded=0;" edge="1" parent="1" source="qmdzbkhT0GlxcxZyQKuT-3" target="qmdzbkhT0GlxcxZyQKuT-8">
          <mxGeometry width="50" height="50" relative="1" as="geometry">
            <mxPoint x="310" y="410" as="sourcePoint" />
            <mxPoint x="300" y="310" as="targetPoint" />
          </mxGeometry>
        </mxCell>
        <mxCell id="qmdzbkhT0GlxcxZyQKuT-15" value="" style="endArrow=none;html=1;rounded=0;" edge="1" parent="1" source="qmdzbkhT0GlxcxZyQKuT-9" target="qmdzbkhT0GlxcxZyQKuT-4">
          <mxGeometry width="50" height="50" relative="1" as="geometry">
            <mxPoint x="320" y="420" as="sourcePoint" />
            <mxPoint x="310" y="320" as="targetPoint" />
          </mxGeometry>
        </mxCell>
        <mxCell id="qmdzbkhT0GlxcxZyQKuT-16" value="" style="endArrow=none;html=1;rounded=0;" edge="1" parent="1" source="qmdzbkhT0GlxcxZyQKuT-10" target="qmdzbkhT0GlxcxZyQKuT-4">
          <mxGeometry width="50" height="50" relative="1" as="geometry">
            <mxPoint x="330" y="430" as="sourcePoint" />
            <mxPoint x="320" y="330" as="targetPoint" />
          </mxGeometry>
        </mxCell>
        <mxCell id="qmdzbkhT0GlxcxZyQKuT-17" value="" style="endArrow=none;html=1;rounded=0;" edge="1" parent="1" source="qmdzbkhT0GlxcxZyQKuT-11" target="qmdzbkhT0GlxcxZyQKuT-4">
          <mxGeometry width="50" height="50" relative="1" as="geometry">
            <mxPoint x="340" y="440" as="sourcePoint" />
            <mxPoint x="330" y="340" as="targetPoint" />
          </mxGeometry>
        </mxCell>
        <mxCell id="qmdzbkhT0GlxcxZyQKuT-18" value="" style="endArrow=none;html=1;rounded=0;" edge="1" parent="1" source="qmdzbkhT0GlxcxZyQKuT-5" target="qmdzbkhT0GlxcxZyQKuT-1">
          <mxGeometry width="50" height="50" relative="1" as="geometry">
            <mxPoint x="350" y="450" as="sourcePoint" />
            <mxPoint x="340" y="350" as="targetPoint" />
          </mxGeometry>
        </mxCell>
        <mxCell id="qmdzbkhT0GlxcxZyQKuT-19" value="" style="endArrow=none;html=1;rounded=0;" edge="1" parent="1" source="qmdzbkhT0GlxcxZyQKuT-5" target="qmdzbkhT0GlxcxZyQKuT-3">
          <mxGeometry width="50" height="50" relative="1" as="geometry">
            <mxPoint x="360" y="460" as="sourcePoint" />
            <mxPoint x="350" y="360" as="targetPoint" />
          </mxGeometry>
        </mxCell>
        <mxCell id="qmdzbkhT0GlxcxZyQKuT-20" value="" style="endArrow=none;html=1;rounded=0;" edge="1" parent="1" source="qmdzbkhT0GlxcxZyQKuT-4" target="qmdzbkhT0GlxcxZyQKuT-5">
          <mxGeometry width="50" height="50" relative="1" as="geometry">
            <mxPoint x="370" y="470" as="sourcePoint" />
            <mxPoint x="360" y="370" as="targetPoint" />
          </mxGeometry>
        </mxCell>
      </root>
    </mxGraphModel>
  </diagram>
</mxfile>
